<svg aria-hidden="true" style="position: absolute; width: 0; height: 0; overflow: hidden;" version="1.1" xmlns="http://www.w3.org/2000/svg" xmlns:xlink="http://www.w3.org/1999/xlink">
<defs>
<symbol id="icon-tell" viewBox="0 0 32 32">
<path d="M28.853 21.796l-4.516-0.516c-0.531-0.062-1.069-0.004-1.574 0.172s-0.964 0.463-1.341 0.841l-3.271 3.271c-5.047-2.567-9.149-6.669-11.716-11.716l3.289-3.289c0.764-0.764 1.138-1.831 1.013-2.916l-0.516-4.48c-0.101-0.867-0.517-1.667-1.169-2.247s-1.495-0.9-2.368-0.899h-3.076c-2.009 0-3.68 1.671-3.556 3.68 0.942 15.182 13.084 27.307 28.249 28.249 2.009 0.124 3.68-1.547 3.68-3.556v-3.076c0.018-1.796-1.333-3.307-3.129-3.52z"></path>
</symbol>
<symbol id="icon-clip" viewBox="0 0 35 32">
<path fill="#cdcdcd" style="fill: var(--color1, #cdcdcd)" d="M6.3 32c-1.489 0-2.811-0.559-3.967-1.677-1.222-1.183-1.833-2.618-1.833-4.306s0.611-3.124 1.833-4.306l19.167-19.677c0.978-0.968 2.106-1.591 3.383-1.871s2.572-0.204 3.883 0.226c1.311 0.43 2.522 1.172 3.633 2.226 0.356 0.366 0.683 0.769 0.983 1.21s0.544 0.903 0.733 1.387c0.189 0.484 0.333 0.995 0.433 1.532s0.15 1.075 0.15 1.613c-0.044 2.28-0.844 4.183-2.4 5.71l-14.5 14.903c-0.2 0.215-0.444 0.328-0.733 0.339s-0.539-0.081-0.75-0.274c-0.211-0.194-0.322-0.436-0.333-0.726s0.083-0.543 0.283-0.758l14.5-14.903c1.178-1.161 1.778-2.602 1.8-4.323s-0.544-3.129-1.7-4.226c-0.711-0.71-1.5-1.247-2.367-1.613s-1.8-0.484-2.8-0.355c-1 0.129-1.889 0.57-2.667 1.323l-19.167 19.677c-0.822 0.796-1.233 1.753-1.233 2.871s0.411 2.075 1.233 2.871c0.378 0.366 0.789 0.64 1.233 0.823s0.911 0.253 1.4 0.21c0.978-0.043 1.889-0.484 2.733-1.323l15.233-15.677c0.111-0.108 0.217-0.22 0.317-0.339s0.206-0.258 0.317-0.419c0.111-0.161 0.2-0.333 0.267-0.516s0.111-0.366 0.133-0.548-0.011-0.371-0.1-0.565c-0.089-0.194-0.222-0.376-0.4-0.548-0.422-0.43-0.833-0.624-1.233-0.581-0.422 0.043-0.9 0.312-1.433 0.806l-11.467 11.806c-0.133 0.129-0.289 0.22-0.467 0.274s-0.361 0.059-0.55 0.016c-0.189-0.043-0.35-0.129-0.483-0.258-0.222-0.194-0.333-0.43-0.333-0.71s0.1-0.527 0.3-0.742l11.467-11.839c0.911-0.86 1.833-1.333 2.767-1.419 1.067-0.086 2.044 0.301 2.933 1.161 0.844 0.796 1.217 1.731 1.117 2.806s-0.639 2.086-1.617 3.032l-15.233 15.71c-1.244 1.204-2.633 1.849-4.167 1.935-0.044 0-0.094 0.005-0.15 0.016s-0.106 0.016-0.15 0.016z"></path>
</symbol>
<symbol id="icon-left" viewBox="0 0 18 32">
<path fill="#fff" style="fill: var(--color2, #fff)" d="M18.4 2.144l-14.087 13.856 14.087 13.856-2.176 2.144-16.224-16.008 16.224-15.992 2.176 2.144z"></path>
</symbol>
<symbol id="icon-bottom" viewBox="0 0 22 32">
<path d="M11.035-0.57c-0.631 0-1.143 0.512-1.143 1.143v0 26.954l-7.19-7.193c-0.207-0.207-0.493-0.335-0.809-0.335-0.632 0-1.144 0.512-1.144 1.144 0 0.316 0.128 0.602 0.335 0.809l9.142 9.142c0.207 0.207 0.493 0.336 0.809 0.336s0.602-0.128 0.809-0.336l9.142-9.142c0.206-0.207 0.333-0.493 0.333-0.808 0-0.632-0.511-1.144-1.142-1.146h-0c-0.303 0-0.594 0.121-0.809 0.336l-7.19 7.193v-26.954c0-0.631-0.512-1.143-1.143-1.143v0z"></path>
</symbol>
<symbol id="icon-right" viewBox="0 0 18 32">
<path fill="#fff" style="fill: var(--color2, #fff)" d="M0 29.856l14.087-13.856-14.087-13.856 2.176-2.144 16.224 16.008-16.224 15.992-2.176-2.144z"></path>
</symbol>
<symbol id="icon-triangular" viewBox="0 0 32 32">
<path d="M28.167 12.821l-21.082-12.073c-3.065-1.756-5.551-0.315-5.551 3.217v24.069c0 3.533 2.485 4.973 5.551 3.217l21.082-12.073c3.065-1.756 3.065-4.602 0-6.358z"></path>
</symbol>
<symbol id="icon-list" viewBox="0 0 107 32">
<path fill="#008cef" style="fill: var(--color1, #008cef)" d="M53.333 32l-46.188-32h92.376l-46.188 32z"></path>
</symbol>
</defs>
</svg>
